<?xml version="1.0" standalone="no"?>
<!DOCTYPE svg PUBLIC "-//W3C//DTD SVG 20010904//EN"
 "http://www.w3.org/TR/2001/REC-SVG-20010904/DTD/svg10.dtd">
<svg version="1.0" xmlns="http://www.w3.org/2000/svg"
 width="1080.000000pt" height="1080.000000pt" viewBox="0 0 1080.000000 1080.000000"
 preserveAspectRatio="xMidYMid meet">
<metadata>
Created by potrace 1.14, written by Peter Selinger 2001-2017
</metadata>
<g transform="translate(0.000000,1080.000000) scale(0.100000,-0.100000)"
fill="#000000" stroke="none">
<path d="M5320 9198 c0 -6 -3 -8 -7 -5 -3 4 -17 0 -30 -8 -13 -9 -23 -13 -23
-9 0 3 -18 -13 -40 -37 -21 -23 -37 -46 -34 -51 3 -4 0 -8 -6 -8 -7 0 -10 -7
-6 -15 3 -8 1 -15 -5 -15 -6 0 -9 -6 -6 -14 3 -8 3 -17 -1 -20 -3 -4 -5 -67
-5 -141 1 -74 -2 -135 -6 -136 -3 -1 -22 -2 -41 -3 -19 -1 -41 -5 -47 -9 -8
-5 -13 -3 -13 5 0 8 -3 9 -8 3 -4 -5 -20 -10 -37 -9 -16 0 -34 -2 -40 -5 -10
-5 -31 -8 -93 -12 -18 -1 -35 -5 -37 -9 -2 -4 -20 -6 -40 -5 -19 0 -35 -3 -35
-8 0 -4 -5 -5 -10 -2 -6 4 -24 0 -40 -9 -17 -8 -28 -10 -25 -5 4 5 1 9 -4 9
-6 0 -11 -4 -11 -8 0 -5 -6 -9 -12 -9 -23 -2 -93 -15 -100 -20 -5 -2 -17 -6
-28 -9 -11 -2 -30 -7 -42 -10 -13 -3 -27 -6 -33 -7 -5 -2 -16 -6 -22 -10 -7
-5 -13 -5 -13 -1 0 3 -7 1 -15 -6 -8 -7 -15 -9 -15 -5 0 4 -6 2 -14 -4 -7 -6
-22 -8 -31 -4 -12 4 -16 3 -12 -4 6 -9 -21 -19 -70 -25 -7 -1 -13 -5 -13 -10
0 -4 -3 -7 -7 -6 -9 1 -40 -9 -66 -23 -10 -5 -22 -7 -27 -4 -6 4 -10 2 -10 -3
0 -5 -10 -13 -22 -17 -13 -4 -25 -8 -28 -9 -3 -2 -17 -8 -33 -14 -74 -31 -123
-56 -129 -66 -4 -6 -8 -8 -8 -4 0 4 -21 -4 -46 -17 -26 -14 -51 -22 -57 -18
-6 3 -7 1 -3 -5 4 -7 1 -12 -9 -12 -9 0 -13 -5 -10 -10 4 -6 3 -9 -2 -8 -11 4
-105 -43 -115 -57 -5 -7 -8 -7 -8 0 0 6 -5 2 -11 -7 -5 -10 -15 -18 -21 -18
-6 0 -33 -16 -59 -35 -27 -19 -55 -36 -62 -38 -6 -1 -18 -10 -25 -19 -7 -10
-20 -18 -28 -18 -8 0 -14 -5 -14 -10 0 -6 -12 -15 -26 -20 -15 -6 -22 -14 -18
-22 4 -7 3 -8 -4 -4 -6 4 -19 -2 -29 -13 -9 -11 -20 -18 -25 -15 -4 3 -8 0 -8
-6 0 -6 -11 -15 -25 -22 -13 -6 -22 -15 -19 -19 3 -5 1 -9 -5 -9 -5 0 -22 -11
-37 -25 -14 -13 -32 -22 -38 -18 -6 3 -8 3 -4 -2 10 -11 -52 -66 -65 -58 -6 3
-7 1 -3 -5 4 -7 3 -12 -3 -12 -5 0 -13 -9 -16 -20 -4 -11 -11 -18 -16 -15 -5
4 -9 1 -9 -5 0 -6 -4 -8 -10 -5 -5 3 -10 2 -10 -3 0 -5 -38 -49 -85 -96 -47
-48 -85 -88 -85 -91 0 -2 -17 -21 -37 -43 -21 -22 -45 -48 -53 -59 -88 -110
-130 -165 -155 -203 -17 -25 -34 -47 -38 -49 -7 -3 -22 -33 -26 -53 -1 -4 -13
-19 -27 -33 -14 -14 -23 -29 -20 -34 3 -5 -1 -12 -10 -15 -8 -3 -12 -10 -9
-16 3 -5 2 -10 -4 -10 -6 0 -13 -11 -17 -25 -3 -14 -10 -22 -15 -19 -5 3 -9
-2 -9 -11 0 -14 -25 -61 -40 -75 -3 -3 -6 -12 -8 -20 -2 -8 -10 -22 -17 -30
-7 -8 -13 -17 -12 -20 3 -8 -57 -125 -66 -128 -4 -2 -5 -7 -2 -12 3 -5 -8 -33
-24 -64 -16 -31 -23 -53 -17 -49 6 3 4 -2 -5 -13 -24 -29 -34 -48 -21 -40 7 4
5 -5 -3 -21 -19 -34 -37 -81 -42 -107 -2 -11 -9 -26 -16 -35 -8 -10 -8 -13 0
-8 6 4 2 -11 -9 -34 -10 -22 -17 -43 -14 -47 3 -3 1 -10 -4 -17 -5 -6 -12 -22
-14 -36 -3 -13 -5 -25 -7 -26 -1 -2 -2 -6 -3 -10 -1 -5 -4 -12 -7 -18 -3 -5
-5 -21 -5 -35 1 -14 -2 -27 -6 -30 -3 -3 -8 -18 -11 -35 -3 -16 -9 -43 -12
-60 -4 -16 -7 -38 -8 -47 -1 -10 -4 -18 -7 -18 -4 0 -6 -8 -6 -17 1 -36 -17
-163 -23 -163 -3 0 -6 -25 -6 -55 0 -30 -4 -55 -10 -55 -5 0 -3 -5 5 -10 9 -6
10 -10 3 -10 -8 0 -11 -13 -8 -39 5 -50 6 -49 -160 -49 -144 0 -153 -1 -173
-20 -8 -7 -17 -10 -22 -7 -4 3 -13 -2 -20 -10 -7 -8 -17 -12 -23 -8 -6 3 -7 1
-3 -5 4 -7 3 -12 -2 -12 -5 0 -15 -11 -22 -25 -7 -13 -17 -22 -21 -19 -5 3 -6
-2 -3 -10 4 -9 1 -16 -6 -16 -7 0 -10 -7 -6 -15 3 -8 2 -15 -3 -15 -10 0 -14
-136 -4 -153 4 -6 9 -21 10 -32 2 -11 8 -21 13 -23 6 -2 10 -8 10 -14 0 -17
66 -74 80 -70 8 3 10 0 5 -8 -6 -10 -2 -12 13 -8 12 4 22 3 22 -1 0 -10 6 -11
168 -13 92 -1 142 -5 143 -12 1 -6 2 -22 4 -36 1 -14 4 -47 5 -75 2 -27 7 -58
12 -67 6 -13 5 -18 -4 -18 -8 0 -9 -3 -3 -8 10 -7 18 -44 19 -89 0 -13 5 -23
11 -23 5 0 3 -5 -5 -10 -8 -5 -10 -10 -5 -10 6 0 12 -17 13 -37 2 -21 6 -40
10 -43 4 -3 8 -18 10 -35 1 -16 3 -42 5 -57 1 -14 6 -23 11 -20 5 3 7 -2 3
-11 -3 -10 -3 -17 2 -17 5 0 7 -11 6 -25 -2 -14 1 -25 6 -25 6 0 9 -6 8 -12
-3 -18 12 -71 25 -87 8 -12 8 -13 -2 -7 -11 6 -11 4 -3 -13 25 -48 28 -57 25
-74 -1 -9 2 -15 7 -11 5 3 9 -3 9 -13 0 -21 23 -89 33 -99 4 -4 7 -16 7 -26 0
-10 4 -18 8 -18 5 0 9 -6 10 -12 2 -25 8 -43 25 -76 10 -18 15 -36 12 -41 -2
-5 2 -12 11 -15 8 -3 12 -10 9 -16 -3 -5 -1 -10 5 -10 6 0 8 -5 4 -12 -4 -6 0
-16 8 -22 8 -6 16 -15 18 -21 1 -5 7 -21 12 -35 5 -14 9 -27 9 -30 0 -3 6 -12
13 -20 7 -8 19 -30 27 -48 8 -17 18 -32 22 -32 5 0 6 -4 2 -9 -3 -6 3 -14 12
-20 10 -6 14 -11 9 -11 -5 0 -3 -7 4 -15 7 -8 9 -15 6 -15 -4 0 -1 -7 6 -15
33 -36 39 -46 33 -54 -3 -5 -2 -11 2 -13 15 -6 62 -76 56 -82 -4 -3 -2 -6 3
-6 5 0 20 -18 34 -40 14 -22 28 -40 33 -40 4 0 5 -4 2 -10 -3 -5 -1 -10 5 -10
6 0 8 -5 5 -10 -3 -5 1 -10 10 -10 9 0 14 -4 10 -9 -3 -6 4 -15 15 -21 11 -6
20 -16 20 -22 0 -11 69 -101 82 -106 5 -2 6 -7 3 -12 -3 -5 4 -11 15 -15 11
-3 20 -11 20 -16 0 -11 27 -43 106 -125 34 -34 59 -65 56 -68 -3 -4 2 -6 12
-6 9 0 14 -4 11 -10 -3 -5 -2 -10 4 -10 6 0 33 -22 60 -50 27 -28 53 -50 57
-50 4 0 26 -19 50 -43 58 -57 104 -93 116 -89 5 1 7 -1 4 -6 -2 -4 9 -17 25
-27 16 -11 29 -23 29 -27 0 -5 7 -8 15 -8 8 0 15 -4 15 -10 0 -5 5 -10 10 -10
9 0 70 -43 126 -89 7 -6 15 -7 18 -4 3 4 6 1 6 -6 0 -7 4 -10 9 -7 5 3 12 -1
15 -10 3 -8 10 -13 14 -10 5 3 14 -3 22 -14 7 -10 19 -16 27 -13 7 3 13 1 13
-4 0 -6 18 -18 40 -29 22 -10 40 -23 40 -27 0 -5 4 -6 9 -2 5 3 13 0 16 -5 7
-12 55 -34 68 -32 4 1 7 -4 7 -12 0 -8 8 -15 18 -14 20 0 115 -46 108 -53 -3
-3 7 -6 22 -7 15 -1 29 -7 30 -12 2 -6 9 -10 16 -10 7 0 30 -9 52 -19 21 -11
42 -17 46 -14 5 2 8 -1 8 -7 0 -7 7 -9 16 -6 8 3 12 2 9 -4 -3 -6 5 -10 19
-10 14 0 26 -5 26 -12 0 -6 3 -9 6 -5 4 3 21 0 39 -8 19 -7 36 -11 39 -7 3 3
6 0 6 -6 0 -7 3 -11 8 -11 4 1 9 0 12 -1 3 -1 13 -3 23 -5 10 -2 26 -7 35 -11
9 -4 26 -9 37 -11 11 -2 36 -9 55 -15 19 -7 41 -11 48 -10 6 2 12 -1 12 -5 0
-5 13 -10 30 -11 16 -1 41 -7 56 -12 14 -6 30 -8 35 -4 5 3 9 1 9 -4 0 -5 8
-9 18 -9 9 0 33 -3 52 -7 19 -4 44 -9 55 -11 11 -2 20 -4 20 -5 0 -1 18 -3 40
-5 52 -4 68 -8 77 -20 5 -6 8 -5 8 4 0 11 3 11 17 0 14 -12 15 -12 9 -1 -7 11
-4 12 13 3 12 -7 26 -9 31 -6 5 3 12 0 16 -6 4 -8 9 -7 15 2 5 8 9 10 9 4 0
-5 17 -10 37 -9 73 1 70 6 71 -139 1 -73 4 -145 8 -162 3 -16 7 -35 7 -42 0
-7 4 -10 9 -7 4 3 8 -4 8 -14 0 -11 7 -23 16 -26 8 -3 12 -10 9 -16 -3 -5 1
-10 9 -10 9 0 16 -4 16 -10 0 -5 6 -10 14 -10 8 0 16 -4 18 -10 2 -5 12 -11
23 -13 11 -1 26 -6 32 -10 17 -11 152 -6 159 5 3 4 9 6 14 3 4 -3 13 2 20 10
7 8 16 13 20 10 4 -3 11 2 14 11 3 8 10 12 16 9 5 -3 10 -1 10 5 0 6 6 18 13
25 28 32 37 45 32 45 -3 0 1 15 8 33 8 21 12 77 11 170 -2 152 -8 139 69 140
15 0 27 5 27 10 0 5 7 4 15 -3 8 -7 15 -8 15 -4 0 5 21 9 48 9 26 0 52 3 57 7
6 4 31 9 55 12 57 6 108 15 140 23 14 3 30 7 35 7 6 1 37 8 70 15 33 8 66 14
73 14 6 0 12 5 12 10 0 6 3 8 6 5 3 -4 20 -2 37 4 18 5 40 10 50 10 9 -1 17 3
17 9 0 5 3 8 8 8 4 -1 9 -1 12 1 3 1 16 3 29 6 14 2 31 10 40 17 10 8 13 9 8
0 -5 -7 4 -6 23 4 17 8 36 16 43 17 7 1 22 8 35 14 12 7 22 10 22 7 0 -3 10 0
23 7 12 7 24 13 27 13 39 9 59 19 55 25 -3 5 4 6 15 3 11 -3 20 -1 20 5 0 9
47 27 63 24 4 -1 7 2 7 7 0 5 14 12 30 16 17 4 30 11 30 16 0 5 9 9 20 9 11 0
20 5 20 11 0 5 5 7 10 4 6 -3 10 -1 10 4 0 6 9 11 20 11 11 0 20 5 20 11 0 5
5 7 10 4 6 -3 10 -2 10 3 0 6 11 13 25 16 17 4 23 11 19 19 -4 7 -4 9 1 5 4
-4 14 -3 22 3 7 6 13 9 13 6 0 -6 62 31 86 52 7 6 15 7 18 4 3 -4 6 -1 6 5 0
7 7 12 15 12 8 0 15 5 15 11 0 5 5 7 10 4 6 -3 13 0 16 9 3 8 19 19 35 25 16
5 29 15 29 20 0 6 7 11 15 11 8 0 15 5 15 12 0 6 3 9 6 6 3 -4 14 1 23 10 23
22 67 53 78 55 4 1 19 13 34 27 42 40 91 80 97 80 3 0 20 15 38 34 18 19 35
31 38 28 3 -3 6 3 6 13 0 10 3 16 6 12 4 -3 35 22 70 57 35 35 64 62 64 59 0
-2 7 2 15 11 8 8 15 17 15 21 0 3 20 25 45 49 25 25 45 49 45 56 0 6 5 8 10 5
6 -3 10 -2 10 4 0 6 14 24 30 41 17 17 30 33 30 36 0 3 6 11 13 18 6 7 26 30
42 51 17 21 40 50 53 66 12 15 22 30 22 34 0 12 28 34 35 27 4 -4 5 -2 4 3 -5
17 12 55 23 55 6 0 8 3 4 7 -3 4 4 13 16 20 13 7 17 12 10 13 -8 0 -5 8 9 23
12 12 27 36 34 52 8 17 23 40 35 53 11 12 18 22 14 22 -3 0 -1 6 5 13 6 8 8
17 4 20 -3 4 -1 7 5 7 6 0 19 17 28 38 10 20 24 45 32 55 8 9 11 17 7 17 -4 0
-1 8 8 18 8 9 16 19 17 22 6 31 14 50 21 50 5 0 9 6 9 14 0 8 9 31 19 53 24
47 35 76 33 86 -1 4 3 7 8 7 5 0 9 3 9 8 -3 18 2 33 9 28 4 -2 8 3 9 12 3 39
9 58 21 70 6 7 12 22 12 32 0 10 5 22 10 25 6 4 8 11 5 16 -4 5 -2 9 4 9 5 0
8 11 6 25 -1 14 1 25 5 25 7 0 33 81 35 107 0 6 4 15 8 19 4 4 7 17 7 29 0 11
5 26 12 33 7 7 9 12 6 12 -3 0 -2 17 4 38 5 20 11 46 13 57 2 11 7 31 10 45 3
14 8 32 10 40 2 8 4 32 4 53 1 21 5 36 9 33 5 -3 10 14 10 37 2 72 3 77 11 77
11 0 8 44 -4 52 -6 5 -6 8 2 8 6 0 10 8 9 18 -2 9 2 21 8 25 8 6 7 10 -2 14
-6 2 -9 10 -5 16 4 7 8 24 9 40 1 15 2 33 3 40 1 10 28 13 119 12 64 0 127 3
140 7 13 4 22 3 22 -2 0 -6 7 -7 18 -1 9 5 31 15 47 22 31 13 85 65 85 81 0 5
5 6 10 3 6 -4 10 -3 9 2 -1 4 0 10 1 13 15 40 23 200 10 200 -5 0 -7 7 -4 15
4 8 1 15 -7 15 -7 0 -10 3 -6 6 3 4 -1 13 -9 21 -8 8 -11 19 -8 25 4 7 2 8 -4
4 -7 -4 -12 -3 -12 3 0 13 -78 59 -110 65 -14 2 -27 5 -30 6 -3 1 -64 2 -137
2 -93 -1 -132 3 -135 11 -2 7 -4 31 -3 54 0 24 -4 43 -10 43 -5 0 -3 5 5 10 8
5 10 10 5 10 -6 0 -11 23 -10 54 0 30 -3 52 -7 49 -5 -2 -8 12 -8 32 0 20 -5
46 -11 57 -8 16 -8 19 1 13 9 -5 9 -1 -1 16 -7 13 -12 25 -11 27 1 1 2 3 1 5
0 1 -2 16 -5 34 -6 50 -8 57 -19 65 -6 5 -5 8 4 8 11 0 11 3 1 15 -7 8 -9 15
-5 15 4 0 3 6 -2 13 -5 6 -10 28 -12 47 -2 19 -8 38 -15 42 -6 4 -8 8 -4 8 4
0 1 18 -7 40 -8 22 -12 40 -10 40 2 0 -3 16 -11 35 -8 19 -12 35 -9 35 3 0 -1
13 -9 29 -9 16 -12 31 -9 35 4 3 1 6 -5 6 -6 0 -9 7 -6 15 4 8 2 15 -3 15 -5
0 -9 10 -10 22 -1 11 -6 24 -10 27 -4 3 -10 15 -11 26 -2 11 -7 22 -12 25 -4
3 -6 13 -4 23 1 10 -3 20 -10 23 -7 3 -13 10 -14 17 -2 28 -9 46 -21 61 -7 9
-11 16 -7 16 3 0 -5 20 -19 44 -13 24 -21 46 -18 50 4 3 1 6 -5 6 -7 0 -12 9
-12 20 0 11 -7 23 -15 26 -8 4 -13 10 -10 14 3 4 -4 19 -15 33 -11 14 -20 32
-20 40 0 9 -7 23 -16 31 -8 9 -12 16 -7 16 4 0 -1 7 -12 16 -11 8 -19 17 -18
19 5 8 -30 75 -39 75 -4 0 -8 9 -8 21 0 11 -4 17 -10 14 -5 -3 -10 1 -10 9 0
9 -9 25 -19 35 -11 11 -17 22 -14 25 3 3 -2 8 -11 12 -9 3 -13 10 -10 15 3 5
-2 12 -10 15 -9 3 -13 10 -10 15 3 5 0 9 -7 9 -7 0 -9 3 -6 7 4 3 -5 16 -18
29 -14 13 -25 29 -25 36 0 7 -9 19 -21 26 -12 7 -18 16 -15 19 3 3 -7 18 -23
33 -16 16 -30 32 -32 37 -5 13 -92 112 -146 168 -23 24 -39 46 -36 49 4 3 1 6
-6 6 -14 0 -81 67 -73 75 6 5 -15 9 -33 5 -5 -1 -7 1 -3 5 6 7 -53 75 -65 75
-3 0 -28 22 -56 49 -28 27 -51 47 -51 43 0 -4 -11 4 -25 18 -38 39 -52 49 -59
43 -3 -4 -6 1 -6 11 0 9 -5 14 -10 11 -6 -3 -13 1 -16 9 -3 9 -12 16 -20 16
-8 0 -14 5 -14 10 0 6 -5 10 -10 10 -6 0 -33 18 -61 40 -28 22 -55 38 -60 34
-5 -3 -9 2 -9 11 0 9 -4 13 -10 10 -5 -3 -10 -2 -10 2 0 5 -17 17 -37 28 -21
11 -40 23 -43 26 -9 10 -55 33 -62 31 -5 -1 -8 2 -8 8 0 5 -7 10 -15 10 -8 0
-15 3 -15 8 0 8 -64 38 -67 31 -1 -2 -8 5 -16 15 -8 10 -19 16 -25 12 -5 -3
-12 -3 -14 1 -5 14 -105 63 -112 56 -3 -3 -6 -1 -6 5 0 7 -9 12 -20 12 -11 0
-20 5 -20 10 0 6 -6 10 -13 10 -13 0 -60 19 -100 41 -10 5 -22 7 -27 4 -6 -4
-10 -2 -10 4 0 9 -56 27 -72 23 -5 -1 -8 3 -8 8 0 5 -3 9 -7 9 -21 -3 -33 2
-27 13 5 7 3 8 -5 3 -7 -4 -23 -3 -34 3 -25 12 -78 26 -89 24 -5 -1 -8 2 -8 7
0 6 -9 8 -20 6 -11 -2 -22 0 -25 6 -4 5 -17 9 -30 9 -13 0 -26 4 -29 9 -3 4
-16 8 -28 7 -13 -1 -25 1 -28 5 -6 8 -61 20 -102 22 -16 1 -28 4 -28 7 0 3
-12 7 -27 8 -16 1 -39 4 -53 7 -41 9 -103 17 -127 18 -13 1 -23 3 -23 7 0 3
-22 5 -50 5 -27 0 -50 2 -50 5 0 3 -23 5 -50 5 -36 0 -51 4 -54 15 -2 8 -3 71
-2 140 1 98 -3 134 -16 168 -10 23 -14 42 -10 42 3 0 -4 7 -16 16 -12 8 -19
20 -16 26 4 6 2 8 -4 4 -5 -3 -12 -3 -14 2 -7 16 -64 49 -81 47 -9 -2 -15 1
-11 6 3 5 -29 9 -75 9 -55 0 -81 -4 -81 -12z m-201 -962 c10 -6 12 -5 7 2 -4
8 0 12 12 12 19 0 20 -9 19 -200 0 -222 7 -202 -64 -203 -13 0 -23 -5 -23 -11
0 -6 -5 -4 -10 4 -5 8 -10 10 -10 4 0 -6 -12 -11 -27 -12 -16 0 -40 -3 -55 -6
-16 -3 -38 -8 -50 -10 -74 -14 -112 -22 -150 -32 -13 -3 -31 -7 -40 -7 -10 -1
-18 -4 -18 -8 0 -3 -25 -12 -55 -19 -30 -7 -55 -17 -55 -22 0 -5 -4 -7 -9 -4
-5 3 -26 -2 -47 -11 -22 -9 -45 -16 -53 -14 -8 1 -10 -2 -5 -10 5 -9 2 -10 -9
-6 -10 3 -17 2 -17 -4 0 -6 -4 -7 -10 -4 -5 3 -10 2 -10 -3 0 -5 -6 -9 -12 -9
-19 -1 -42 -7 -48 -14 -3 -3 -44 -24 -92 -48 -49 -24 -88 -47 -88 -53 0 -5 -5
-6 -12 -2 -6 4 -17 -1 -25 -12 -8 -10 -15 -18 -16 -16 -3 5 -41 -10 -47 -18
-3 -3 -32 -24 -65 -45 -33 -22 -66 -45 -73 -52 -6 -6 -21 -15 -32 -18 -11 -4
-18 -11 -15 -16 6 -8 -8 -13 -27 -10 -5 0 -8 -6 -8 -14 0 -8 -5 -15 -11 -15
-13 0 -100 -74 -187 -160 -36 -36 -70 -64 -75 -62 -5 1 -6 -2 -3 -7 3 -5 -8
-21 -25 -35 -17 -14 -27 -26 -24 -26 4 0 -7 -13 -24 -29 -17 -16 -31 -32 -31
-35 0 -3 -8 -14 -17 -24 -28 -30 -50 -58 -79 -102 -15 -22 -31 -40 -36 -40 -5
0 -6 -4 -3 -10 3 -5 1 -10 -4 -10 -6 0 -11 -7 -11 -15 0 -8 -5 -15 -11 -15 -6
0 -8 -7 -5 -16 3 -8 2 -12 -4 -9 -6 3 -10 1 -10 -5 0 -6 -6 -18 -12 -26 -29
-34 -33 -40 -36 -54 -2 -8 -10 -22 -17 -30 -7 -8 -15 -22 -17 -30 -2 -8 -5
-17 -9 -20 -13 -12 -57 -108 -52 -114 4 -3 1 -6 -5 -6 -6 0 -13 -14 -17 -30
-4 -18 -11 -27 -17 -24 -6 4 -8 3 -5 -3 3 -5 0 -21 -8 -36 -8 -15 -12 -27 -9
-27 3 0 2 -6 -3 -12 -4 -7 -8 -19 -10 -27 -1 -8 -7 -17 -13 -21 -7 -4 -11 -11
-11 -16 0 -5 -5 -27 -11 -49 -6 -22 -11 -43 -10 -47 1 -5 -3 -8 -10 -8 -6 0
-9 -3 -5 -6 3 -3 0 -22 -7 -42 -7 -21 -11 -43 -9 -49 3 -7 1 -13 -4 -13 -6 0
-10 -6 -11 -12 -4 -27 -10 -63 -12 -63 -1 0 -4 -13 -6 -30 -6 -43 -11 -70 -14
-70 -1 0 -4 -13 -6 -30 -6 -42 -11 -70 -14 -70 -7 0 -5 -47 2 -51 5 -3 3 -13
-4 -21 -7 -9 -12 -18 -10 -20 1 -1 2 -9 2 -17 0 -11 -38 -13 -200 -13 l-200
-1 0 29 c0 16 6 29 13 30 9 0 9 2 0 6 -9 3 -10 10 -3 24 8 13 7 19 0 19 -6 0
-8 5 -3 13 4 6 9 21 11 32 4 29 10 77 11 98 0 10 4 16 9 14 4 -3 6 9 6 26 -1
18 4 38 10 46 9 12 8 13 -4 6 -13 -8 -13 -6 -1 8 7 9 11 24 7 32 -3 8 -1 15 4
15 6 0 10 8 10 18 0 10 6 24 13 31 10 11 10 13 0 7 -7 -4 -13 -2 -13 3 0 6 4
11 9 11 5 0 8 11 6 25 -1 14 1 25 5 25 6 0 15 29 21 68 0 4 5 13 11 20 6 6 8
12 4 12 -3 0 1 17 10 38 8 20 18 48 20 62 3 13 10 28 16 31 6 4 7 12 4 18 -4
6 -2 11 5 11 7 0 9 3 6 7 -4 3 -2 12 4 20 6 7 8 13 3 13 -5 0 -3 4 4 8 7 5 14
18 17 30 2 12 7 28 12 35 4 6 8 14 9 17 11 37 18 49 24 45 4 -3 7 1 7 8 -1 20
24 77 35 77 5 0 7 4 3 9 -3 5 3 17 12 27 10 10 17 18 16 18 -6 2 10 46 16 46
4 0 13 16 21 35 8 19 17 35 22 35 4 0 8 7 8 15 0 8 5 15 11 15 5 0 7 5 4 10
-3 6 -2 10 4 10 5 0 13 10 17 23 4 12 12 25 18 29 6 4 11 11 11 16 0 5 8 16
18 26 9 10 17 24 17 32 0 8 5 12 10 9 6 -3 10 1 10 9 0 9 5 16 10 16 6 0 10 5
10 10 0 11 10 24 43 61 9 10 17 21 17 24 0 3 12 19 28 36 15 17 26 35 24 40
-1 5 5 9 13 9 8 0 15 4 15 8 0 4 18 27 40 51 22 23 40 47 40 52 0 6 5 7 10 4
6 -3 10 2 10 11 0 10 2 15 5 12 6 -6 115 100 115 113 0 5 6 9 13 9 6 0 23 12
36 25 13 14 27 25 33 25 5 0 6 5 3 10 -3 6 -1 10 4 10 6 0 20 8 30 18 40 36
56 47 63 45 5 -2 7 2 5 9 -1 7 3 12 8 13 6 0 21 10 35 23 13 12 30 22 39 22 8
0 12 3 8 6 -3 3 40 36 97 73 56 36 111 72 122 79 10 7 27 15 37 18 9 4 17 11
17 16 0 5 4 7 9 4 5 -3 14 1 21 9 7 8 16 12 21 9 5 -3 9 -2 9 3 0 4 24 19 54
33 30 13 52 28 49 32 -2 5 -1 7 4 6 13 -5 93 24 93 34 0 4 11 8 24 8 13 0 26
5 28 10 2 6 13 12 26 13 12 0 22 5 22 10 0 4 5 5 10 2 6 -3 10 -1 10 6 0 7 3
10 6 7 3 -4 20 0 39 7 18 8 35 11 39 8 3 -4 6 -1 6 6 0 7 5 9 10 6 6 -3 10 -1
10 6 0 7 3 10 6 6 4 -3 22 0 40 8 19 8 34 11 34 8 0 -3 7 0 15 7 8 6 18 9 23
6 5 -3 20 1 35 9 14 7 28 11 31 7 3 -3 6 1 6 9 0 11 2 11 10 -1 5 -8 10 -10
10 -4 0 6 6 11 13 12 26 2 71 13 90 23 15 9 18 8 12 -2 -5 -8 -4 -10 4 -5 6 4
24 10 39 12 15 3 43 9 63 14 20 6 47 10 60 10 43 1 89 7 95 12 7 8 25 5 43 -6z
m606 4 c2 -3 22 -6 44 -5 23 1 41 -4 41 -9 0 -6 5 -4 10 4 5 8 10 10 10 5 0
-6 8 -11 18 -11 44 -2 108 -17 114 -27 6 -9 8 -8 8 2 0 9 4 10 13 4 6 -6 23
-9 35 -8 13 1 26 -3 28 -9 3 -7 20 -11 39 -11 19 1 32 -2 29 -6 -2 -5 8 -7 23
-6 16 1 27 -3 26 -9 -1 -6 8 -10 20 -9 12 1 29 -1 37 -5 36 -17 84 -29 94 -23
6 3 8 3 4 -2 -7 -7 62 -35 160 -66 17 -5 32 -14 32 -20 0 -6 4 -8 8 -5 8 5 90
-30 102 -43 3 -3 14 -8 25 -9 11 -2 22 -7 25 -11 7 -11 123 -65 133 -63 5 1 6
-2 2 -7 -3 -6 6 -13 20 -17 14 -3 25 -10 25 -15 0 -5 5 -9 11 -9 6 0 30 -14
55 -30 24 -17 44 -29 44 -26 0 3 12 -6 26 -19 15 -14 30 -22 35 -19 5 3 9 -3
9 -12 0 -10 3 -15 6 -11 6 5 15 0 49 -31 8 -7 15 -11 15 -7 0 3 11 -4 24 -17
13 -13 36 -32 52 -43 15 -11 38 -29 50 -40 57 -51 73 -63 80 -57 4 4 4 2 1 -4
-3 -6 8 -23 26 -37 40 -31 108 -97 101 -97 -3 0 1 -6 8 -14 7 -8 16 -12 21 -9
4 2 7 1 7 -4 0 -4 19 -29 43 -55 92 -102 104 -116 110 -132 4 -10 12 -14 18
-10 7 4 9 3 6 -3 -3 -5 7 -24 22 -41 16 -17 26 -33 23 -36 -3 -3 0 -6 6 -6 7
0 12 -7 12 -15 0 -8 4 -15 8 -15 9 0 62 -77 62 -90 0 -5 6 -13 13 -17 7 -4 19
-21 27 -37 29 -56 35 -66 42 -66 5 0 8 -7 8 -15 0 -8 5 -15 12 -15 6 0 9 -3 5
-6 -3 -3 8 -27 24 -54 16 -26 29 -52 29 -59 0 -6 5 -11 10 -11 6 0 10 -3 9 -7
-2 -16 14 -53 23 -53 5 0 7 -4 4 -9 -4 -5 -2 -11 4 -13 6 -2 12 -12 14 -24 2
-11 13 -40 24 -65 20 -44 33 -79 33 -89 1 -3 5 -11 11 -17 6 -7 7 -13 2 -13
-5 0 -3 -4 3 -8 7 -4 15 -19 17 -32 2 -14 5 -26 7 -27 1 -2 3 -7 4 -13 1 -5 4
-13 5 -17 1 -5 2 -11 1 -15 0 -5 4 -8 10 -8 5 0 8 -4 4 -9 -3 -5 -1 -12 4 -16
5 -3 8 -14 6 -25 -2 -11 0 -20 6 -20 5 0 9 -13 9 -30 0 -16 5 -30 10 -30 6 0
10 -6 8 -12 -1 -7 4 -38 12 -68 7 -30 15 -64 16 -75 1 -11 3 -20 4 -20 3 0 20
-86 25 -125 1 -14 3 -25 5 -25 1 0 3 -20 4 -45 1 -25 5 -50 7 -55 3 -6 6 -26
8 -46 l2 -36 -196 0 c-107 0 -198 4 -201 9 -3 4 -6 22 -6 38 -1 17 -4 33 -8
35 -3 2 -6 22 -5 44 1 23 -4 41 -9 41 -6 0 -4 5 4 10 11 7 11 10 2 10 -7 0
-12 6 -11 13 1 6 -1 30 -6 52 -5 22 -8 48 -7 58 0 9 -3 17 -7 17 -4 0 -8 6 -9
13 0 6 -4 26 -8 42 -3 17 -6 38 -6 48 0 9 -4 17 -10 17 -5 0 -8 6 -5 14 3 7 1
18 -3 22 -5 5 -11 21 -14 34 -2 14 -5 27 -6 30 -2 3 -2 8 -1 13 0 4 -3 7 -9 7
-5 0 -6 7 -3 17 5 12 3 14 -7 8 -10 -6 -12 -4 -7 7 3 9 3 19 -1 23 -4 4 -7 10
-8 13 -1 9 -13 40 -32 82 -8 19 -13 35 -11 36 2 0 -2 8 -10 17 -7 10 -10 17
-5 17 5 0 5 4 -1 8 -13 9 -75 133 -75 150 0 6 -4 12 -8 12 -5 0 -19 20 -32 45
-13 25 -26 45 -30 45 -4 0 -7 6 -7 13 0 13 -34 67 -60 95 -7 7 -13 17 -13 22
0 5 -11 20 -25 34 -14 14 -25 30 -25 36 0 6 -7 13 -15 16 -8 4 -13 9 -11 13 3
4 -6 15 -19 25 -14 10 -22 22 -20 26 3 4 -2 11 -11 14 -8 3 -13 10 -10 14 3 5
-6 15 -19 22 -14 7 -25 17 -25 22 0 5 -33 41 -72 81 -40 39 -72 75 -70 80 1 5
-2 6 -7 3 -5 -3 -12 1 -15 10 -4 9 -9 14 -12 12 -3 -3 -20 9 -38 28 -18 19
-38 34 -45 34 -6 0 -11 8 -11 17 0 9 -3 13 -6 10 -4 -4 -15 3 -25 15 -11 11
-19 18 -19 15 0 -3 -12 5 -26 18 -15 14 -33 25 -41 25 -8 0 -11 5 -8 10 3 6
-1 10 -9 10 -9 0 -16 5 -16 10 0 6 -5 10 -10 10 -12 0 -73 41 -78 53 -2 4 -10
7 -18 7 -8 0 -14 5 -14 11 0 6 -6 9 -14 6 -8 -3 -17 1 -20 9 -3 8 -12 14 -21
14 -8 0 -15 5 -15 10 0 6 -6 10 -13 10 -7 0 -24 8 -37 17 -14 10 -30 18 -37
19 -7 1 -26 12 -43 24 -16 12 -34 18 -40 15 -5 -3 -10 -1 -10 5 0 6 -4 9 -9 6
-5 -4 -11 -1 -13 4 -2 6 -13 12 -26 13 -12 0 -22 5 -22 9 0 4 -7 8 -15 8 -8 0
-15 4 -15 8 0 5 -6 9 -12 10 -13 1 -22 3 -65 17 -13 4 -23 12 -23 19 0 6 -5 4
-10 -4 -6 -10 -10 -11 -10 -2 0 6 -9 12 -20 12 -11 0 -20 4 -20 9 0 5 -8 8
-17 6 -10 -1 -22 0 -28 4 -5 3 -13 6 -17 7 -5 1 -9 2 -10 4 -4 2 -40 11 -60
14 -10 1 -21 5 -24 9 -4 4 -20 7 -36 7 -20 0 -27 4 -22 12 4 6 3 9 -2 5 -5 -3
-32 -1 -59 4 -28 5 -63 12 -80 15 -16 3 -44 7 -61 8 -16 1 -34 5 -40 8 -5 3
-26 4 -46 4 -27 -1 -38 3 -40 14 -1 8 -2 99 -3 202 l-1 188 38 -2 c21 -1 41
-4 43 -8z m-65 -1761 c0 -6 4 -8 9 -4 5 3 12 1 16 -5 4 -6 10 -8 15 -5 5 3 24
-10 43 -29 19 -19 38 -32 42 -28 4 4 5 3 4 -3 -2 -6 2 -19 8 -31 7 -11 14 -32
17 -45 2 -13 7 -31 11 -40 3 -10 2 -20 -4 -24 -15 -9 -14 -28 2 -19 6 4 5 -1
-4 -12 -9 -10 -14 -25 -12 -31 3 -7 0 -13 -5 -13 -5 0 -8 -10 -8 -22 1 -13 0
-27 -3 -33 -3 -5 -6 -12 -7 -15 -6 -31 -17 -68 -25 -82 -6 -12 -6 -18 2 -18 8
0 8 -4 0 -13 -6 -8 -12 -22 -14 -33 -1 -10 -5 -23 -8 -29 -3 -5 -5 -22 -4 -37
0 -15 -2 -25 -6 -23 -3 3 -15 -36 -25 -85 -10 -50 -21 -90 -25 -90 -4 0 -6
-11 -4 -25 1 -14 -1 -25 -4 -25 -4 0 -7 -8 -8 -17 -3 -30 -54 -227 -65 -247
-7 -13 -7 -16 1 -12 8 5 8 1 2 -16 -20 -51 -25 -63 -26 -73 -2 -26 -40 -175
-45 -175 -3 0 -5 -12 -4 -27 1 -16 -3 -34 -9 -40 -5 -7 -7 -13 -3 -13 3 0 0
-15 -7 -32 -8 -18 -12 -39 -10 -45 3 -7 1 -13 -4 -13 -4 0 -9 -14 -10 -32 0
-18 -6 -34 -11 -36 -6 -2 -8 -10 -5 -18 3 -8 0 -21 -7 -29 -6 -8 -9 -19 -5
-25 3 -5 3 -16 -2 -22 -4 -7 -8 -18 -9 -25 -7 -43 -39 -163 -44 -163 -3 0 -5
-12 -4 -27 1 -16 -2 -32 -6 -38 -5 -5 -9 -14 -10 -20 -7 -55 -48 -138 -63
-128 -6 4 -8 0 -5 -9 4 -10 -4 -18 -28 -27 -19 -7 -32 -17 -28 -22 3 -6 0 -9
-7 -8 -8 1 -31 -1 -52 -5 -22 -5 -42 -4 -50 2 -6 5 -20 8 -29 7 -9 -2 -19 3
-22 11 -3 8 -15 14 -26 14 -12 0 -18 5 -15 10 3 6 -2 10 -11 10 -10 0 -15 3
-11 6 5 6 0 15 -31 49 -7 8 -11 19 -7 24 3 5 1 12 -5 16 -6 4 -8 11 -5 16 4 5
2 9 -2 9 -5 0 -7 16 -5 35 2 19 7 35 11 35 4 0 7 10 6 23 -1 12 2 28 8 35 5 6
7 12 4 12 -3 0 1 20 8 44 8 24 11 47 8 50 -4 3 -1 6 4 6 6 0 10 8 8 18 -1 9 0
22 4 27 6 10 10 26 15 60 2 11 5 21 6 23 1 1 3 5 4 10 14 58 19 88 18 95 -1 4
3 7 9 7 6 0 9 6 6 13 -2 6 2 32 10 57 8 25 16 54 18 65 2 11 5 27 7 35 2 8 12
51 23 95 10 44 23 83 29 87 7 5 5 8 -4 8 -9 0 -11 3 -5 8 6 4 11 13 13 20 1 7
4 23 6 35 3 12 5 22 6 22 2 0 10 36 12 58 1 9 5 17 9 17 3 0 6 10 6 23 0 12 5
35 11 50 7 15 13 41 14 58 1 17 6 33 10 35 5 3 6 10 3 15 -4 5 -3 9 2 9 4 0 9
15 11 33 4 56 6 67 12 67 4 0 7 6 8 13 2 34 35 161 45 175 6 8 5 12 -4 12 -8
0 -5 6 7 15 11 8 14 15 7 15 -7 0 -13 5 -13 12 0 6 3 8 7 4 5 -4 14 19 21 51
7 32 15 69 18 83 3 14 7 32 9 40 2 8 4 15 5 15 3 0 22 85 23 103 0 6 3 12 7
12 4 0 7 7 7 14 0 42 116 148 143 131 5 -3 10 -2 10 3 0 5 16 9 35 10 19 1 35
-3 35 -9z m-1114 -442 c4 -4 16 -7 26 -7 10 0 18 -5 18 -11 0 -5 4 -8 9 -4 5
3 18 -6 30 -20 11 -15 23 -26 28 -27 4 0 7 -5 5 -10 -2 -6 5 -8 15 -4 9 4 15
4 11 1 -8 -9 12 -68 26 -77 8 -6 8 -8 0 -8 -7 0 -9 -10 -6 -25 2 -13 1 -33 -3
-42 -5 -10 -7 -22 -6 -27 1 -5 -7 -19 -19 -31 -11 -12 -18 -24 -14 -27 3 -3 0
-9 -7 -14 -8 -5 -10 -3 -4 7 5 8 -14 -8 -41 -36 -28 -27 -48 -53 -46 -57 2 -5
-1 -8 -7 -8 -12 0 -131 -119 -131 -131 0 -6 -3 -8 -7 -6 -10 6 -34 -19 -26
-27 4 -3 -2 -6 -11 -6 -15 0 -17 -6 -14 -30 3 -16 1 -30 -4 -30 -4 0 27 -35
69 -77 43 -42 81 -76 86 -75 4 1 7 -7 7 -19 0 -11 4 -18 9 -14 12 7 43 -24 35
-36 -3 -5 -1 -8 4 -7 13 4 97 -85 114 -120 20 -40 22 -106 3 -141 -8 -17 -13
-31 -11 -31 2 0 -12 -17 -32 -38 -20 -21 -40 -37 -44 -35 -4 2 -9 -1 -13 -7
-4 -6 -11 -8 -16 -5 -5 4 -9 1 -9 -4 0 -6 -3 -10 -7 -10 -5 1 -10 0 -13 -1
-16 -6 -72 -5 -76 2 -3 4 -14 8 -25 8 -10 0 -19 4 -19 9 0 5 -13 14 -30 21
-16 7 -32 21 -35 31 -4 10 -10 19 -15 19 -11 0 -80 70 -80 81 0 5 -6 9 -12 9
-7 0 -22 13 -33 29 -11 17 -21 28 -24 26 -5 -6 -51 47 -51 59 0 5 -3 7 -6 4
-7 -8 -51 35 -47 45 2 4 -1 7 -8 7 -13 0 -49 38 -49 52 0 4 -4 8 -8 8 -5 0
-26 17 -48 38 -45 43 -109 122 -99 122 4 0 2 7 -5 15 -7 8 -9 15 -6 15 4 0 2
9 -4 20 -8 15 -8 20 2 20 10 0 10 2 -1 9 -10 6 -10 10 -1 16 6 4 9 13 6 20 -2
7 4 22 15 34 11 12 17 21 13 21 -4 0 1 8 12 19 10 10 25 28 33 39 8 12 17 20
20 18 3 -1 18 11 33 26 15 15 25 28 23 28 -2 0 11 15 28 33 18 18 35 31 39 30
4 -2 9 6 13 17 4 11 11 18 16 15 5 -4 9 0 10 7 0 7 21 30 45 51 25 20 43 37
39 37 -3 0 6 11 21 25 15 14 31 25 36 25 5 0 7 4 3 9 -3 5 4 12 15 16 11 4 19
9 17 13 -1 4 12 21 30 39 18 17 33 29 33 27 0 -3 11 7 25 22 14 15 25 23 25
18 0 -4 5 -3 12 4 7 7 22 12 35 12 13 0 23 4 23 8 0 10 46 9 56 -1z m1718 1
c-5 -7 -3 -8 7 -2 18 11 39 14 39 5 0 -4 12 -8 28 -9 15 -1 29 -7 30 -12 2 -6
9 -10 16 -10 6 0 19 -8 27 -17 9 -10 25 -24 37 -32 11 -8 19 -18 17 -21 -2 -4
7 -13 20 -20 13 -7 22 -17 19 -22 -3 -4 2 -8 11 -8 9 0 13 -4 10 -10 -3 -5 -2
-10 4 -10 13 0 61 -48 61 -61 0 -6 5 -7 10 -4 6 3 10 -1 10 -9 0 -9 4 -15 9
-13 5 1 21 -13 35 -32 14 -19 26 -32 26 -28 0 3 26 -20 58 -51 32 -31 57 -60
55 -63 -2 -4 7 -9 18 -12 12 -3 18 -10 15 -15 -3 -5 5 -15 18 -21 31 -17 87
-113 87 -148 -1 -48 -6 -68 -24 -93 -9 -13 -14 -27 -11 -32 3 -4 -3 -8 -12 -8
-10 0 -15 -2 -12 -5 7 -7 -280 -295 -293 -295 -6 0 -8 -3 -6 -7 5 -10 -81 -92
-88 -85 -3 3 -5 0 -5 -6 0 -15 -36 -52 -51 -52 -5 0 -8 -4 -5 -9 5 -8 -22 -25
-32 -21 -2 1 -9 -5 -15 -13 -11 -13 -39 -24 -87 -33 -8 -2 -20 2 -27 7 -7 6
-16 8 -22 5 -5 -4 -16 1 -25 9 -8 9 -18 16 -21 16 -15 -1 -34 12 -30 19 3 5
-4 11 -15 15 -11 3 -20 13 -20 21 0 8 -4 14 -9 14 -9 0 -24 38 -22 57 1 6 -3
14 -8 18 -7 4 -7 15 0 33 6 15 10 28 10 30 -4 10 13 52 22 52 6 0 8 3 5 6 -8
7 173 190 184 186 5 -1 7 2 3 8 -3 5 -1 10 5 10 6 0 8 5 5 10 -6 9 8 14 28 11
4 0 7 4 7 11 0 6 18 28 40 50 23 21 35 38 28 39 -9 0 -10 2 -1 5 24 10 -7 55
-116 163 -60 60 -112 107 -115 104 -2 -2 -7 5 -11 16 -3 12 -14 21 -22 21 -9
0 -13 3 -10 7 4 3 -4 16 -16 27 -13 12 -22 27 -19 34 2 7 -1 12 -8 12 -6 0 -8
5 -5 10 3 6 1 10 -6 10 -7 0 -10 3 -6 6 3 3 2 16 -3 28 -5 14 -3 33 5 53 7 17
11 34 8 37 -4 3 -1 6 5 6 7 0 11 3 10 8 -6 15 54 81 68 75 9 -3 14 0 12 7 -2
7 4 14 14 15 9 2 24 8 35 14 23 13 26 13 17 -1z m-3313 -897 c1 -9 1 -28 1
-43 1 -16 6 -28 12 -28 6 0 4 -5 -4 -10 -8 -5 -10 -10 -4 -10 5 0 10 -10 10
-22 1 -13 4 -39 8 -58 4 -19 8 -46 10 -60 2 -14 10 -51 19 -82 8 -31 12 -59 9
-62 -3 -3 -1 -6 4 -6 5 0 10 -8 11 -17 2 -26 8 -46 17 -61 4 -7 5 -16 2 -19
-3 -3 -1 -11 4 -18 5 -6 12 -22 14 -36 3 -13 5 -25 5 -26 1 -2 0 -5 -1 -6 -2
-2 3 -11 11 -20 7 -10 10 -17 7 -17 -4 0 0 -8 10 -17 11 -11 13 -18 5 -21 -7
-2 -6 -9 4 -19 8 -8 13 -19 10 -24 -4 -5 -2 -9 2 -9 5 0 16 -16 25 -35 8 -19
11 -32 6 -29 -5 3 -4 -3 3 -14 7 -12 17 -18 23 -15 5 3 6 1 2 -5 -7 -11 51
-134 66 -140 4 -2 8 -12 8 -23 0 -10 5 -19 12 -19 6 0 9 -3 5 -6 -5 -6 0 -15
31 -49 7 -8 10 -15 5 -15 -4 0 1 -7 11 -15 11 -8 17 -15 13 -15 -9 0 20 -46
45 -74 10 -11 18 -25 18 -31 0 -6 9 -17 20 -25 11 -8 20 -19 20 -25 0 -5 12
-21 25 -34 14 -12 22 -28 18 -34 -3 -5 -2 -8 3 -5 5 3 15 0 22 -8 7 -8 10 -14
6 -14 -4 0 6 -13 22 -28 16 -16 43 -45 60 -65 17 -20 34 -33 38 -29 4 4 6 2 4
-4 -3 -10 126 -144 138 -144 2 0 18 -13 36 -30 17 -16 35 -30 39 -30 5 0 9 -7
9 -16 0 -8 4 -13 9 -10 4 3 23 -8 41 -24 19 -17 40 -30 47 -30 8 0 11 -4 8
-10 -3 -5 1 -10 9 -10 9 0 16 -4 16 -10 0 -5 7 -10 15 -10 8 0 15 -4 15 -10 0
-5 7 -10 15 -10 8 0 15 -4 15 -10 0 -5 7 -10 15 -10 8 0 15 -4 15 -10 0 -5 5
-10 11 -10 6 0 29 -12 52 -27 23 -16 49 -29 57 -31 8 -2 17 -8 20 -12 3 -5 22
-16 42 -24 20 -9 40 -20 43 -26 4 -6 11 -8 16 -5 5 4 9 2 9 -4 0 -6 7 -8 15
-5 10 4 15 0 15 -11 0 -9 4 -14 10 -10 5 3 17 2 27 -3 10 -5 42 -21 71 -35 29
-15 50 -22 46 -16 -4 7 0 7 12 0 28 -16 78 -35 88 -32 4 1 14 -4 22 -10 8 -6
14 -8 14 -4 0 4 6 2 13 -4 8 -6 17 -8 20 -4 4 3 7 2 7 -3 0 -9 18 -14 63 -17
9 -1 17 -4 17 -7 0 -3 14 -7 31 -8 17 -1 39 -6 48 -11 9 -5 22 -6 30 -3 9 3
11 0 6 -8 -5 -8 -4 -11 2 -7 5 3 36 0 70 -7 33 -6 72 -11 86 -11 15 1 27 -2
27 -7 0 -4 3 -7 8 -7 4 1 26 1 48 0 l42 -1 0 -200 -1 -199 -36 2 c-20 1 -39 6
-43 12 -5 6 -8 6 -8 -1 0 -14 -60 -5 -60 10 0 6 -5 4 -10 -4 -6 -10 -10 -11
-10 -2 0 6 -5 12 -11 12 -5 0 -7 -5 -3 -11 4 -7 -1 -7 -16 1 -12 6 -24 9 -27
6 -3 -3 -13 -1 -23 4 -9 5 -34 10 -54 12 -20 1 -36 5 -36 8 0 3 -8 6 -17 6
-44 2 -127 25 -135 38 -5 8 -8 7 -8 -2 0 -10 -4 -10 -22 0 -23 12 -28 14 -63
20 -11 2 -26 7 -32 11 -7 5 -17 5 -23 2 -5 -3 -10 -2 -10 3 0 6 -22 16 -50 23
-27 7 -50 16 -50 19 0 4 -6 7 -12 7 -23 1 -42 8 -57 21 -7 7 -20 11 -27 8 -8
-3 -14 -1 -14 4 0 6 -5 10 -10 10 -11 0 -102 41 -110 49 -3 3 -14 8 -25 9 -11
2 -22 7 -25 11 -3 4 -30 20 -60 34 -61 29 -112 59 -120 68 -3 4 -14 9 -25 13
-11 3 -32 17 -47 31 -16 14 -28 23 -28 20 0 -7 -101 64 -110 76 -3 4 -12 9
-20 11 -8 2 -21 11 -28 21 -7 9 -20 17 -28 17 -8 0 -14 8 -14 17 0 9 -3 14 -6
10 -6 -6 -27 10 -92 70 -25 23 -49 40 -53 37 -5 -3 -9 0 -9 6 0 6 -7 18 -15
26 -8 9 -15 12 -15 7 0 -4 -9 6 -20 22 -11 17 -20 27 -20 23 0 -4 -11 4 -25
18 -14 14 -25 29 -25 34 0 6 -7 10 -17 10 -9 0 -13 3 -10 7 4 3 -5 15 -20 25
-16 10 -24 18 -19 18 4 0 -6 13 -23 29 -17 16 -31 34 -31 41 0 6 -5 8 -10 5
-5 -3 -10 1 -10 10 0 9 -4 13 -10 10 -5 -3 -10 -1 -10 5 0 6 -9 20 -20 32 -10
12 -17 25 -14 30 3 4 -1 8 -8 8 -13 0 -44 39 -40 52 1 4 -7 10 -18 13 -11 4
-18 10 -15 15 3 5 -6 21 -21 35 -14 14 -24 29 -21 32 3 3 -4 15 -16 27 -24 23
-36 40 -67 99 -11 20 -26 37 -32 37 -6 0 -9 3 -5 6 6 7 -52 117 -65 122 -5 2
-6 7 -3 12 3 5 -2 15 -10 24 -9 8 -16 17 -16 18 1 17 -14 48 -22 48 -6 0 -7 3
-4 7 4 3 -3 21 -14 40 -11 18 -18 33 -15 33 3 0 -3 16 -14 36 -11 19 -17 41
-14 47 4 7 3 9 -1 5 -5 -5 -17 16 -27 45 -10 28 -21 59 -25 67 -3 8 -5 19 -4
24 1 4 -4 14 -10 22 -6 8 -8 14 -4 14 4 0 3 6 -2 13 -11 13 -21 44 -29 92 -4
17 -11 33 -17 37 -6 4 -9 10 -5 13 3 3 0 26 -7 50 -8 24 -11 46 -8 49 4 3 2 6
-4 6 -6 0 -9 9 -6 20 3 13 0 20 -8 20 -11 0 -11 2 1 10 8 5 10 10 4 10 -7 0
-14 17 -17 38 -3 20 -8 57 -12 82 -4 25 -8 60 -9 78 0 17 -3 32 -7 32 -3 0 -6
7 -6 15 0 8 5 15 11 15 6 0 5 4 -3 9 -8 5 -11 16 -8 24 3 8 1 19 -4 24 -7 7
60 10 195 10 180 -1 206 -3 207 -16z m5299 -13 c0 -21 -4 -27 -12 -22 -9 6 -9
3 0 -9 8 -9 11 -20 8 -25 -6 -10 -18 -91 -21 -141 -1 -19 -6 -36 -11 -38 -6
-2 -8 -20 -6 -40 3 -19 1 -33 -4 -30 -5 3 -10 -13 -11 -35 -2 -23 -7 -46 -11
-52 -5 -6 -9 -22 -10 -35 -1 -22 -6 -38 -28 -96 -4 -11 -9 -27 -10 -35 -4 -19
-12 -53 -14 -60 -1 -3 -2 -8 -1 -12 0 -5 -4 -8 -10 -8 -5 0 -7 -4 -4 -10 3 -5
1 -10 -5 -10 -6 0 -8 -4 -5 -10 3 -5 -1 -23 -10 -40 -8 -16 -16 -33 -17 -37 0
-5 -6 -21 -12 -38 -5 -16 -9 -33 -8 -37 1 -5 -3 -8 -8 -8 -6 0 -10 -9 -10 -20
0 -11 -5 -20 -11 -20 -6 0 -9 -6 -6 -14 3 -8 3 -16 -1 -18 -8 -3 -66 -118 -67
-131 0 -4 -7 -12 -15 -17 -8 -5 -11 -10 -7 -10 9 0 -37 -84 -61 -113 -8 -9
-13 -20 -9 -23 9 -9 -16 -33 -28 -26 -5 3 -7 2 -3 -3 4 -4 3 -14 -3 -22 -6 -7
-8 -13 -4 -13 4 0 -2 -8 -13 -17 -12 -10 -22 -24 -24 -32 -2 -7 -13 -25 -26
-39 -12 -14 -20 -27 -18 -29 2 -2 -8 -17 -23 -32 -38 -42 -53 -61 -46 -61 3 0
-5 -11 -19 -24 -15 -13 -26 -27 -26 -31 0 -4 -11 -18 -24 -30 -14 -13 -22 -26
-19 -29 4 -3 -1 -6 -10 -6 -10 0 -17 -6 -17 -12 0 -7 -22 -34 -49 -60 -27 -27
-47 -48 -45 -48 2 0 -5 -9 -16 -20 -11 -11 -25 -20 -31 -20 -5 0 -7 -4 -4 -10
3 -5 -5 -15 -19 -21 -14 -7 -23 -16 -20 -20 3 -5 1 -9 -3 -9 -5 0 -31 -20 -58
-45 -28 -25 -54 -45 -58 -45 -5 0 -6 -4 -3 -8 3 -5 -7 -15 -22 -23 -15 -8 -33
-22 -40 -32 -7 -9 -25 -24 -40 -31 -15 -8 -40 -26 -56 -40 -16 -14 -34 -26
-40 -26 -6 0 -17 -9 -24 -21 -7 -12 -16 -19 -19 -16 -3 3 -12 0 -19 -6 -8 -7
-20 -17 -27 -22 -7 -6 -29 -19 -49 -30 -21 -11 -38 -23 -38 -28 0 -4 -4 -5
-10 -2 -5 3 -10 2 -10 -2 0 -5 -9 -13 -20 -18 -82 -41 -136 -71 -142 -80 -4
-5 -10 -6 -14 -3 -3 4 -16 -2 -27 -13 -12 -11 -26 -18 -31 -16 -6 2 -17 -2
-24 -10 -8 -7 -18 -11 -23 -8 -5 4 -9 1 -9 -5 0 -7 -6 -10 -12 -8 -7 3 -21 -3
-31 -13 -11 -10 -27 -16 -37 -14 -10 2 -21 -4 -24 -12 -4 -9 -9 -13 -13 -10
-3 4 -15 1 -27 -5 -21 -12 -37 -17 -68 -20 -10 -1 -18 -5 -18 -9 0 -8 -59 -24
-72 -21 -5 1 -8 -3 -8 -9 0 -6 -6 -9 -14 -6 -8 3 -17 3 -21 -1 -4 -4 -11 -8
-16 -8 -5 -1 -11 -3 -14 -4 -3 -1 -9 -4 -15 -5 -5 -1 -11 -3 -12 -5 -3 -2 -15
-4 -58 -13 -14 -3 -45 -10 -70 -17 -25 -6 -63 -14 -85 -17 -22 -3 -42 -8 -45
-12 -3 -4 -24 -7 -47 -6 -24 0 -43 -3 -43 -6 0 -3 -12 -6 -27 -7 -16 0 -37 -3
-48 -5 -11 -2 -26 1 -34 7 -11 8 -13 8 -7 -1 5 -9 -1 -13 -22 -13 l-28 0 -1
200 0 200 29 0 c21 0 27 4 22 13 -6 9 -4 9 7 1 8 -6 23 -9 34 -7 11 3 35 6 53
7 17 2 35 6 39 9 11 12 24 8 18 -5 -4 -7 -1 -6 7 3 7 8 25 15 41 14 15 -1 27
2 27 7 0 5 5 6 10 3 6 -4 19 -3 28 1 20 8 30 11 57 16 11 2 26 7 33 11 6 5 17
5 22 2 6 -3 10 -1 10 5 0 6 4 9 10 5 5 -3 25 1 45 9 19 8 35 12 35 9 0 -3 6
-1 13 4 13 11 67 27 80 25 4 -1 7 2 7 8 0 5 7 10 16 10 8 0 35 9 60 20 70 32
98 43 107 42 4 -1 7 2 7 8 0 5 7 6 17 3 10 -4 14 -2 10 4 -4 6 3 13 16 17 13
3 40 16 59 30 20 13 46 27 59 31 13 4 29 14 37 21 7 8 20 14 28 14 8 0 14 4
14 10 0 5 11 12 25 16 14 3 25 10 25 15 0 5 8 13 18 16 9 4 26 15 36 25 10 9
22 15 26 13 3 -2 13 5 20 16 8 10 19 19 25 19 6 0 17 9 25 21 8 12 23 24 32
28 40 15 255 217 250 235 -2 6 0 8 4 4 7 -8 54 40 54 55 0 5 5 5 10 2 6 -3 10
-2 10 2 0 10 34 55 72 95 15 15 24 28 20 28 -4 0 2 7 12 15 11 8 17 15 13 15
-3 0 7 14 23 32 16 17 27 35 25 39 -3 4 2 10 11 13 8 3 12 10 9 16 -3 5 -1 10
5 10 5 0 18 16 27 35 9 19 20 35 24 35 4 0 10 11 13 25 4 14 11 25 17 25 6 0
7 5 4 10 -3 6 -2 10 3 10 8 0 23 35 21 49 -1 2 6 8 15 13 9 5 13 15 9 25 -4
10 -2 14 4 10 10 -6 19 10 28 52 2 8 10 18 17 22 7 5 10 9 5 9 -4 0 -1 10 8
23 8 13 12 27 8 30 -3 4 -1 7 5 7 7 0 12 8 12 18 0 10 3 22 8 26 4 4 7 11 7
14 1 4 6 17 13 30 7 12 10 27 7 32 -3 6 -1 10 5 10 6 0 9 4 5 9 -3 5 -1 12 5
16 5 3 10 15 10 26 0 10 4 19 9 19 6 0 8 9 6 20 -2 11 1 20 7 20 5 0 8 6 5 14
-3 8 -3 17 1 20 3 4 7 14 9 24 5 22 8 33 18 55 4 10 5 21 2 24 -4 3 -1 15 5
27 7 11 12 26 13 31 5 55 19 124 24 121 3 -2 6 19 6 47 0 29 4 57 8 64 5 6 7
17 6 25 -1 7 -1 22 0 34 1 20 5 21 201 21 l200 -1 0 -28z"/>
</g>
</svg>
